<?xml version="1.0" standalone="no"?>
<!DOCTYPE svg PUBLIC "-//W3C//DTD SVG 20010904//EN"
 "http://www.w3.org/TR/2001/REC-SVG-20010904/DTD/svg10.dtd">
<svg version="1.0" xmlns="http://www.w3.org/2000/svg"
 width="1383.000000pt" height="106.000000pt" viewBox="0 0 1383.000000 106.000000"
 preserveAspectRatio="xMidYMid meet">

<g transform="translate(0.000000,106.000000) scale(0.100000,-0.100000)"
fill="#000000" stroke="none">
<path d="M98 1040 c-20 -11 -50 -36 -65 -57 l-28 -36 0 -417 0 -417 28 -36
c16 -21 46 -46 67 -57 39 -20 61 -20 1565 -20 l1525 0 0 175 0 175 -1417 2
-1418 3 0 175 0 175 1418 3 1417 2 0 175 0 175 -1527 0 c-1496 -1 -1529 -1
-1565 -20z"/>
<path d="M3550 885 l0 -175 1415 0 1415 0 0 -355 0 -355 180 0 180 0 0 458 c0
422 -2 460 -19 497 -22 48 -44 69 -94 90 -32 13 -211 15 -1557 15 l-1520 0 0
-175z"/>
<path d="M7195 1041 c-48 -22 -69 -44 -90 -94 -13 -31 -15 -105 -15 -492 l0
-455 180 0 180 0 0 355 0 355 1415 0 1415 0 0 175 0 175 -1522 0 c-1456 0
-1525 -1 -1563 -19z"/>
<path d="M10745 1046 c-37 -17 -80 -62 -94 -99 -7 -19 -11 -187 -11 -488 l0
-459 175 0 175 0 2 353 3 352 1240 0 1240 0 3 -352 2 -353 175 0 176 0 -3 473
-3 474 -28 36 c-16 21 -46 46 -67 57 -39 20 -61 20 -1497 20 -1196 -1 -1463
-3 -1488 -14z"/>
</g>
</svg>
